HIERARCHY
ROOT Hips
{
 OFFSET 0.000000 0.000000 0.000000
 CHANNELS 6 Xposition Yposition Zposition Yrotation Xrotation Zrotation
 JOINT Chest
 {
  OFFSET 0.000000 9.118891 -0.003343
  CHANNELS 3 Yrotation Xrotation Zrotation
  JOINT Chest2
  {
   OFFSET 0.000000 9.974827 0.006072
   CHANNELS 3 Yrotation Xrotation Zrotation
   JOINT Chest3
   {
    OFFSET 0.000000 9.012192 0.000000
    CHANNELS 3 Yrotation Xrotation Zrotation
    JOINT Chest4
    {
     OFFSET 0.000000 9.012192 0.000000
     CHANNELS 3 Yrotation Xrotation Zrotation
     JOINT Neck
     {
      OFFSET 0.000000 12.705587 0.000000
      CHANNELS 3 Yrotation Xrotation Zrotation
      JOINT Head
      {
       OFFSET 0.000000 8.391369 0.014439
       CHANNELS 3 Yrotation Xrotation Zrotation
       End Site
       {
        OFFSET 0.000000 16.040357 0.007542
       }
      }
     }
     JOINT RightCollar
     {
      OFFSET -2.776401 7.093167 0.000000
      CHANNELS 3 Yrotation Xrotation Zrotation
      JOINT RightShoulder
      {
       OFFSET -13.069743 0.000000 0.000000
       CHANNELS 3 Yrotation Xrotation Zrotation
       JOINT RightElbow
       {
        OFFSET 0.000000 -28.086887 0.000000
        CHANNELS 3 Yrotation Xrotation Zrotation
        JOINT RightWrist
        {
         OFFSET 0.000000 -22.938724 0.000000
         CHANNELS 3 Yrotation Xrotation Zrotation
         End Site
         {
          OFFSET 0.000000 -17.079533 0.000000
         }
        }
       }
      }
     }
     JOINT LeftCollar
     {
      OFFSET 2.776401 7.093167 0.000000
      CHANNELS 3 Yrotation Xrotation Zrotation
      JOINT LeftShoulder
      {
       OFFSET 13.069743 0.000000 0.000000
       CHANNELS 3 Yrotation Xrotation Zrotation
       JOINT LeftElbow
       {
        OFFSET 0.000000 -28.086887 0.000000
        CHANNELS 3 Yrotation Xrotation Zrotation
        JOINT LeftWrist
        {
         OFFSET 0.000000 -22.938724 0.000000
         CHANNELS 3 Yrotation Xrotation Zrotation
         End Site
         {
          OFFSET 0.000000 -17.079533 0.000000
         }
        }
       }
      }
     }
    }
   }
  }
 }
 JOINT RightHip
 {
  OFFSET -7.432142 0.016379 0.001671
  CHANNELS 3 Yrotation Xrotation Zrotation
  JOINT RightKnee
  {
   OFFSET 0.000000 -38.693556 -0.001581
   CHANNELS 3 Yrotation Xrotation Zrotation
   JOINT RightAnkle
   {
    OFFSET 0.000000 -37.632671 -0.002674
    CHANNELS 3 Yrotation Xrotation Zrotation
    JOINT RightToe
    {
     OFFSET 0.000000 -6.431303 14.619699
     CHANNELS 3 Yrotation Xrotation Zrotation
     End Site
     {
      OFFSET 0.000000 -1.406368 6.076152
     }
    }
   }
  }
 }
 JOINT LeftHip
 {
  OFFSET 7.432142 0.016379 0.001671
  CHANNELS 3 Yrotation Xrotation Zrotation
  JOINT LeftKnee
  {
   OFFSET 0.000000 -38.693556 -0.001581
   CHANNELS 3 Yrotation Xrotation Zrotation
   JOINT LeftAnkle
   {
    OFFSET 0.000000 -37.632671 -0.002674
    CHANNELS 3 Yrotation Xrotation Zrotation
    JOINT LeftToe
    {
     OFFSET 0.000000 -6.431303 14.619699
     CHANNELS 3 Yrotation Xrotation Zrotation
     End Site
     {
      OFFSET 0.000000 -1.406368 6.076152
     }
    }
   }
  }
 }
}
MOTION
Frames: 16
Frame Time: 0.008333
40.520736 50.661953 261.994694 -62.870387 -36.202373 -2.306471 3.153740 10.116691 -2.331908 1.166904 4.472933 -0.658847 1.166904 4.472933 -0.658847 0.879564 3.353462 -0.502442 -2.541381 21.952763 3.242864 -3.496128 -2.442405 4.091216 -6.287685 10.547224 16.690473 25.927563 -17.637870 -36.029889 63.086649 -46.959713 -23.835515 15.532138 0.196863 1.672047 -6.470081 9.376899 -7.668766 -10.006285 -29.215331 14.830483 -72.808953 -39.049331 25.331147 -15.858219 -0.710203 -15.860501 8.334530 -45.205825 -18.018955 52.275646 82.734354 49.904732 -4.897452 0.401871 9.714377 0.625062 -1.462057 0.362976 13.558555 -46.012121 2.809563 38.848363 79.935270 37.143212 -0.619782 -1.249431 4.952439 0.382402 1.422995 0.453221
40.512446 50.667339 261.981196 -62.802329 -36.277761 -2.297081 3.156486 10.123925 -2.380888 1.174308 4.475818 -0.676602 1.174308 4.475818 -0.676602 0.885248 3.355584 -0.515811 -2.499501 22.027005 3.435902 -3.497865 -2.346643 4.292977 -6.326268 10.495552 16.753767 25.954179 -17.575424 -35.970170 63.094135 -46.859722 -23.816153 15.432844 0.069467 1.504583 -6.467320 9.329427 -7.565979 -9.862425 -29.062586 14.853174 -73.070364 -39.167226 25.545571 -15.859338 -0.658178 -15.702859 8.213757 -45.148538 -17.982525 52.520445 82.744067 50.079244 -4.912105 0.375364 9.689759 0.620279 -1.467680 0.355637 13.481569 -45.926252 2.899994 38.689781 79.958320 36.872705 -0.668961 -1.221502 4.958393 0.390991 1.413321 0.442155
40.501702 50.672275 261.969069 -62.725392 -36.350978 -2.284668 3.146336 10.132003 -2.433716 1.180076 4.478891 -0.691811 1.180076 4.478891 -0.691811 0.889687 3.357853 -0.527260 -2.465907 22.085263 3.615257 -3.505177 -2.269546 4.481938 -6.370829 10.452348 16.809920 26.005214 -17.503809 -35.921744 63.076326 -46.776620 -23.782611 15.335968 -0.036550 1.345916 -6.490265 9.298787 -7.478437 -9.743225 -28.907046 14.886481 -73.247131 -39.289141 25.747466 -15.865497 -0.598601 -15.551421 8.092120 -45.093034 -17.968682 52.759089 82.766015 50.255060 -4.897623 0.336970 9.657448 0.612907 -1.470445 0.349024 13.394591 -45.840584 2.980911 38.527572 79.984225 36.593846 -0.702644 -1.192114 4.969596 0.392205 1.400251 0.427148
40.491771 50.673883 261.963610 -62.607985 -36.422075 -2.259240 3.089018 10.138552 -2.527356 1.183388 4.480627 -0.709206 1.183388 4.480627 -0.709206 0.892299 3.359118 -0.540327 -2.413904 22.130249 3.791748 -3.491612 -2.208700 4.663422 -6.392557 10.421757 16.869395 26.066577 -17.430009 -35.884998 63.009494 -46.714892 -23.715879 15.260043 -0.121914 1.191037 -6.477729 9.279974 -7.384140 -9.666230 -28.743131 14.929110 -73.358084 -39.428086 25.928319 -15.886454 -0.535954 -15.413677 7.979638 -45.039379 -18.025578 53.070721 82.790805 50.514211 -4.888584 0.319275 9.607273 0.627495 -1.494354 0.352950 13.297515 -45.756566 3.019671 38.438329 80.017134 36.382656 -0.781225 -1.160622 4.959548 0.433218 1.385839 0.432911
40.476325 50.674584 261.951445 -62.529834 -36.485473 -2.250276 3.058156 10.143777 -2.573789 1.183564 4.483422 -0.725315 1.183564 4.483422 -0.725315 0.892551 3.361183 -0.552409 -2.362044 22.154492 3.952775 -3.474271 -2.172867 4.827951 -6.412557 10.396541 16.913465 26.165248 -17.354487 -35.859466 62.872800 -46.658204 -23.604640 15.216745 -0.220547 1.043968 -6.466415 9.267257 -7.301069 -9.629005 -28.595335 14.980417 -73.364952 -39.562003 26.079299 -15.913478 -0.494939 -15.315125 7.861031 -44.992168 -18.034061 53.279201 82.823285 50.684823 -4.839510 0.258000 9.557847 0.615359 -1.481971 0.345959 13.168943 -45.692014 3.128422 38.383862 80.052466 36.192532 -0.830370 -1.121585 4.964916 0.441712 1.360788 0.422350
40.460161 50.674644 261.940784 -62.452350 -36.546997 -2.229313 3.018832 10.143946 -2.629575 1.181976 4.485298 -0.740322 1.181976 4.485298 -0.740322 0.891474 3.362563 -0.563651 -2.308613 22.170185 4.100221 -3.451851 -2.147749 4.977265 -6.414672 10.375509 16.959238 26.269683 -17.274616 -35.852999 62.694082 -46.603356 -23.476702 15.163402 -0.306813 0.901896 -6.445827 9.265732 -7.223487 -9.597808 -28.450701 15.023017 -73.334981 -39.702539 26.233549 -15.968838 -0.479008 -15.261366 7.758125 -44.946488 -18.071150 53.482378 82.862790 50.858072 -4.776432 0.196968 9.512035 0.596076 -1.472102 0.332037 13.040489 -45.624764 3.225683 38.394774 80.076706 36.062928 -0.896141 -1.078588 4.964253 0.454337 1.335444 0.416264
40.440237 50.674668 261.927467 -62.376388 -36.604945 -2.215344 2.979888 10.149270 -2.674597 1.180689 4.489028 -0.753292 1.180689 4.489028 -0.753292 0.890608 3.365338 -0.573370 -2.263525 22.170997 4.235833 -3.435547 -2.140312 5.115557 -6.420247 10.353937 17.002440 26.397469 -17.190122 -35.852288 62.455826 -46.563458 -23.330575 15.139850 -0.392026 0.782799 -6.445778 9.275731 -7.152412 -9.577584 -28.325371 15.069229 -73.253547 -39.840499 26.365074 -16.000205 -0.442139 -15.231229 7.638853 -44.904599 -18.093475 53.645446 82.909168 50.993519 -4.702195 0.126253 9.457103 0.577939 -1.455671 0.319834 12.893362 -45.562101 3.351484 38.399724 80.106099 35.916218 -0.967681 -1.041117 4.961877 0.472103 1.314264 0.415169
40.418042 50.675017 261.915743 -62.308562 -36.668269 -2.190639 2.946860 10.160911 -2.728196 1.181092 4.494138 -0.766345 1.181092 4.494138 -0.766345 0.891012 3.369145 -0.583167 -2.211550 22.158255 4.368017 -3.410797 -2.149221 5.248336 -6.423203 10.338054 17.054325 26.530272 -17.117947 -35.865622 62.177466 -46.543353 -23.164725 15.116797 -0.449131 0.678142 -6.443939 9.291971 -7.080583 -9.539402 -28.222289 15.108819 -73.174941 -39.967687 26.479113 -16.035012 -0.425756 -15.209262 7.527607 -44.862736 -18.127853 53.887552 82.955325 51.207251 -4.622499 0.061833 9.401866 0.556266 -1.448013 0.305858 12.754929 -45.491295 3.471971 38.463126 80.132296 35.826297 -1.046334 -1.009253 4.957135 0.488930 1.295264 0.416550
40.392549 50.675236 261.903147 -62.242099 -36.729565 -2.171312 2.917366 10.178503 -2.770439 1.182464 4.501560 -0.777774 1.182464 4.501560 -0.777774 0.892132 3.374688 -0.591758 -2.171063 22.132366 4.493922 -3.396979 -2.173325 5.376943 -6.441243 10.333065 17.101507 26.676761 -17.061573 -35.888169 61.888184 -46.517108 -22.978180 15.098878 -0.516904 0.566225 -6.445543 9.314377 -7.006958 -9.491482 -28.144908 15.130737 -73.090603 -40.097886 26.589369 -16.071245 -0.397451 -15.206763 7.415520 -44.821425 -18.149866 54.119598 83.007661 51.415690 -4.558776 -0.006852 9.339968 0.545227 -1.437190 0.297707 12.601637 -45.424698 3.607599 38.522325 80.166163 35.728835 -1.114629 -0.981733 4.949821 0.501021 1.277375 0.417878
40.367913 50.675028 261.896469 -62.136226 -36.790667 -2.133362 2.843138 10.196196 -2.860548 1.183204 4.510066 -0.789793 1.183204 4.510066 -0.789793 0.892785 3.381043 -0.600789 -2.118515 22.092419 4.623614 -3.370832 -2.214141 5.506680 -6.433145 10.335226 17.158430 26.814030 -17.004208 -35.918975 61.573221 -46.509101 -22.802337 15.087515 -0.558334 0.482468 -6.438866 9.346598 -6.930229 -9.409792 -28.098417 15.133767 -73.037657 -40.232383 26.688381 -16.111047 -0.339292 -15.220053 7.318274 -44.779568 -18.241598 54.464478 83.055015 51.743758 -4.523885 -0.048133 9.262474 0.562377 -1.450747 0.301038 12.460914 -45.345909 3.690814 38.613275 80.197896 35.660175 -1.238643 -0.964278 4.929082 0.553833 1.271173 0.437178
40.336487 50.675779 261.884061 -62.072912 -36.860243 -2.114081 2.811992 10.224326 -2.896633 1.184319 4.520772 -0.799390 1.184319 4.520772 -0.799390 0.893704 3.389053 -0.608011 -2.081734 22.041827 4.742209 -3.359158 -2.267330 5.627984 -6.420010 10.351367 17.212569 26.963715 -16.963187 -35.967249 61.235942 -46.491251 -22.607726 15.062767 -0.597067 0.397572 -6.439477 9.393147 -6.860500 -9.301719 -28.093101 15.114189 -72.981682 -40.343221 26.751071 -16.155091 -0.330556 -15.236017 7.196734 -44.732341 -18.252527 54.849647 83.099096 52.101067 -4.480211 -0.125771 9.196102 0.557518 -1.438085 0.295738 12.310281 -45.270408 3.839407 38.786492 80.226917 35.672697 -1.342130 -0.945060 4.925357 0.568762 1.256130 0.439963
40.302506 50.677566 261.873664 -62.001710 -36.938835 -2.093732 2.771065 10.255306 -2.933560 1.183233 4.532130 -0.807556 1.183233 4.532130 -0.807556 0.892963 3.397557 -0.614144 -2.047935 21.984796 4.849552 -3.347990 -2.328572 5.737571 -6.408767 10.381991 17.250266 27.111648 -16.938470 -36.020913 60.896016 -46.497073 -22.433561 15.060747 -0.613584 0.342223 -6.431841 9.449314 -6.802585 -9.187332 -28.101748 15.081520 -72.936582 -40.446016 26.821850 -16.211147 -0.294116 -15.271526 7.070924 -44.672678 -18.264503 55.227051 83.152599 52.446555 -4.440528 -0.211788 9.129835 0.559330 -1.422344 0.293928 12.170640 -45.180553 3.975517 38.960176 80.254647 35.687839 -1.447032 -0.933118 4.932588 0.578415 1.244368 0.438946
40.266435 50.678498 261.860320 -61.936687 -37.007737 -2.073902 2.732330 10.280456 -2.960330 1.181264 4.544794 -0.814065 1.181264 4.544794 -0.814065 0.891549 3.407045 -0.619032 -2.020083 21.918087 4.952604 -3.342244 -2.401060 5.843808 -6.391480 10.427714 17.293336 27.264841 -16.912917 -36.090073 60.537411 -46.517377 -22.259351 15.072977 -0.619896 0.296925 -6.425056 9.518733 -6.746416 -9.045369 -28.137982 15.026616 -72.909664 -40.536700 26.884649 -16.262027 -0.279341 -15.327199 6.940810 -44.623572 -18.264155 55.639559 83.198643 52.824595 -4.416937 -0.299845 9.062606 0.565332 -1.402276 0.291902 12.037155 -45.101671 4.113571 39.127809 80.282328 35.702989 -1.553337 -0.925323 4.937440 0.592884 1.238381 0.438353
40.227514 50.679886 261.844913 -61.897331 -37.084368 -2.046956 2.709711 10.306394 -2.983002 1.178463 4.557355 -0.820713 1.178463 4.557355 -0.820713 0.889514 3.416457 -0.624017 -1.991910 21.841697 5.051294 -3.335059 -2.485077 5.945056 -6.366744 10.477985 17.335738 27.402809 -16.890767 -36.151548 60.166594 -46.533551 -22.092596 15.106500 -0.622922 0.262834 -6.404358 9.603395 -6.685968 -8.893253 -28.211604 14.961046 -72.884635 -40.612812 26.921854 -16.313902 -0.237609 -15.395398 6.827409 -44.568163 -18.252219 56.065027 83.238772 53.214689 -4.389636 -0.379913 9.005953 0.563786 -1.388886 0.284524 11.917756 -45.015932 4.274230 39.359089 80.310376 35.774571 -1.677030 -0.925334 4.953693 0.602082 1.233818 0.434923
40.188204 50.680342 261.829069 -61.857731 -37.155864 -2.017978 2.693423 10.330598 -2.996361 1.178510 4.570438 -0.824603 1.178510 4.570438 -0.824603 0.889593 3.426262 -0.626957 -1.977871 21.758709 5.139714 -3.340808 -2.576742 6.038375 -6.367547 10.546427 17.365357 27.549939 -16.876543 -36.214091 59.798133 -46.554790 -21.936850 15.129469 -0.622172 0.247112 -6.404776 9.705306 -6.630346 -8.774318 -28.306336 14.894556 -72.816207 -40.668508 26.938173 -16.370994 -0.185327 -15.478553 6.729848 -44.517051 -18.251133 56.552771 83.274076 53.676089 -4.379445 -0.460912 8.947795 0.566247 -1.374174 0.279974 11.793867 -44.933248 4.435637 39.594010 80.337777 35.839189 -1.791005 -0.927865 4.983661 0.604349 1.231338 0.425457
40.148408 50.680829 261.811046 -61.822363 -37.226242 -1.984690 2.666291 10.350878 -3.016381 1.175918 4.584228 -0.829141 1.175918 4.584228 -0.829141 0.887701 3.436599 -0.630364 -1.960731 21.672823 5.218469 -3.340828 -2.672475 6.120211 -6.347385 10.621227 17.395398 27.691827 -16.866447 -36.283379 59.425325 -46.594121 -21.790784 15.156476 -0.601008 0.234686 -6.389373 9.809407 -6.582324 -8.671325 -28.420184 14.839960 -72.714164 -40.706354 26.922721 -16.433694 -0.127033 -15.566449 6.638785 -44.469076 -18.253852 57.043413 83.310567 54.142083 -4.362545 -0.535783 8.893067 0.566643 -1.364738 0.272346 11.679995 -44.850959 4.599537 39.757963 80.370179 35.834068 -1.913894 -0.923026 5.014173 0.618245 1.226113 0.420218
